<svg width="995" height="291" viewBox="0 0 995 291" fill="none" xmlns="http://www.w3.org/2000/svg">
<path d="M6 284.882H760.382C762.302 284.882 764.203 284.503 765.977 283.767C767.751 283.031 769.363 281.952 770.72 280.593C772.077 279.233 773.154 277.619 773.888 275.842C774.622 274.066 774.999 272.162 774.997 270.24V199.945" stroke="#E50025" stroke-miterlimit="10"/>
<rect x="5.5" y="280" width="7.77817" height="7.77817" transform="rotate(45 5.5 280)" fill="#E50025"/>
<rect x="989.5" y="280" width="7.77817" height="7.77817" transform="rotate(45 989.5 280)" fill="#E50025"/>
<path d="M995 284.883H898.719C894.719 284.883 890.883 283.292 888.054 280.46C885.226 277.629 883.637 273.788 883.637 269.784V1.5" stroke="#E50025" stroke-miterlimit="10"/>
<path d="M782.688 285.773H799.109C802.987 285.77 806.705 284.226 809.448 281.481C812.19 278.736 813.732 275.013 813.734 271.131V231.023" stroke="#E50025" stroke-miterlimit="10"/>
<path d="M818.602 285.773H836.037C839.915 285.77 843.634 284.227 846.376 281.481C849.118 278.736 850.66 275.013 850.663 271.131V138.656" stroke="#E50025" stroke-miterlimit="10"/>
<path d="M764.723 209.688L775.149 199.25L785.769 209.881" stroke="#E50025" stroke-miterlimit="10"/>
<path d="M803.195 241.727L813.622 231.289L824.252 241.92" stroke="#E50025" stroke-miterlimit="10"/>
<path d="M840.438 149.204L850.864 138.766L861.484 149.397" stroke="#E50025" stroke-miterlimit="10"/>
<path d="M873.148 11.4381L883.575 1L894.205 11.631" stroke="#E50025" stroke-miterlimit="10"/>
<path d="M873.148 11.4381L883.575 1L894.205 11.631" stroke="#E50025" stroke-miterlimit="10"/>
</svg>
