<svg width="1275" height="208" viewBox="0 0 1275 208" fill="none" xmlns="http://www.w3.org/2000/svg">
<path d="M4 202L607 202" stroke="#E50025" stroke-miterlimit="10"/>
<rect x="5.5" y="197" width="7.77817" height="7.77817" transform="rotate(45 5.5 197)" fill="#E50025"/>
<path d="M940.491 23.0485L1209.89 189.852H1187.04L1186.86 189.735L1186.86 189.735L941.838 30.2512L941.606 30.1003V30.3769V35.9146V35.9954L941.674 36.0399L1174.96 189.852H1152.24L1152.05 189.719L1152.05 189.719L943.578 43.3049L943.342 43.139V43.4276V45.8913V45.9655L943.401 46.0106L1131.95 189.848H1110.06L1109.86 189.684L1109.85 189.684L943.587 52.6061L943.342 52.4038V52.7218V55.7614V55.8277L943.391 55.8723L1090.55 189.848H1069.78L944.079 62.6199L943.882 62.4208L943.825 62.6948L943.406 64.7162L943.391 64.7889L943.439 64.8449L1051.81 189.848H1033.03L1032.81 189.553L1032.81 189.553L943.615 71.9556L943.345 71.6003V72.0462V75.7799V75.8247L943.37 75.8621L1017.95 189.845H1003.35L941.974 83.485L941.974 83.4845C941.772 83.1382 941.894 82.6882 942.247 82.4848L942.249 82.4836C942.582 82.2842 943.037 82.4002 943.248 82.7513C943.248 82.7517 943.248 82.752 943.249 82.7523L1004.16 188.304L1004.2 188.379H1004.29H1014.96H1015.24L1015.08 188.147L941.876 76.2653V67.233L1033.71 188.319L1033.75 188.379H1033.83H1048.26H1048.58L1048.37 188.131L941.819 65.2002L943.01 59.43L1070.36 188.334L1070.4 188.379H1070.46H1086.38H1086.77L1086.48 188.118L941.872 56.4807V49.2902L943.08 50.2824L943.08 50.2826L1110.55 188.345L1110.6 188.379H1110.65H1127.16H1127.6L1127.25 188.11L941.872 46.6942V40.3068L1152.67 188.348L1152.71 188.375H1152.76H1169.58H1170.08L1169.66 188.1L940.133 36.7796V27.385L941.274 28.1267L941.274 28.1268L1187.44 188.351L1187.48 188.375H1187.52H1204.2H1204.72L1204.28 188.097L938.943 23.8139V17.5131L940.055 18.1722L940.056 18.1723L1228.1 188.354L1228.14 188.375H1228.18H1240.08H1240.64L1240.16 188.095L940.133 13.8761V6.869L941.233 7.4839L941.233 7.4842L1261.9 188.474L1261.98 188.343L1261.9 188.474C1262.26 188.673 1262.38 189.12 1262.19 189.467C1262.05 189.716 1261.8 189.848 1261.54 189.848C1261.43 189.848 1261.3 189.818 1261.18 189.755C1261.18 189.755 1261.17 189.754 1261.17 189.754L941.834 9.51476L941.61 9.38849V9.64539V12.9557V13.042L941.685 13.0854L1246.11 189.848H1227.74L1227.57 189.747L1227.5 189.869L1227.57 189.747L940.647 20.229L940.42 20.0953V20.3581V22.921V23.0045L940.491 23.0485Z" fill="#E50025" stroke="#F6F5F3" stroke-width="0.3"/>
<path d="M941.067 5.18785L941.068 5.1871C941.415 4.99119 941.871 5.11889 942.059 5.47384L942.059 5.47387L942.061 5.47754C942.259 5.82702 942.127 6.28042 941.776 6.47338L941.776 6.47343L608.722 189.758C608.722 189.758 608.722 189.758 608.721 189.758C608.606 189.819 608.489 189.847 608.365 189.847C608.108 189.847 607.859 189.711 607.726 189.471C607.529 189.113 607.66 188.666 608.014 188.47L608.014 188.47L941.066 5.18784L941.067 5.18785ZM940.995 5.05758L940.994 5.05643L940.995 5.05758Z" fill="#E50025" stroke="#F6F5F3" stroke-width="0.3"/>
<path d="M620.103 189.476L620.102 189.475C619.906 189.127 620.03 188.678 620.384 188.482L620.385 188.482L942.15 6.87801V13.8857L941.79 14.1038L941.787 14.1052L642.131 188.103L641.649 188.383H642.206H654.109H654.15L654.185 188.362L943.347 17.5205V23.8211L943.003 24.0328L943.002 24.0331L678.018 188.105L677.57 188.383H678.097H694.771H694.816L694.853 188.358L942.154 27.393V36.7877L941.824 37.006L941.824 37.0062L712.632 188.107L712.215 188.383H712.715H729.53H729.577L729.616 188.355L940.418 40.3146V46.702L755.037 188.117L754.684 188.387H755.128H771.645H771.699L771.741 188.352L940.418 49.2949V56.4838L940.178 56.6986L940.177 56.6995L795.811 188.122L795.524 188.383H795.912H811.838H811.901L811.945 188.338L939.292 59.4343L940.472 65.2054L940.241 65.4798L940.24 65.4816L833.925 188.134L833.71 188.383H834.039H848.458H848.533L848.578 188.323L940.418 67.2368V76.2701L940.302 76.453L940.301 76.4546L867.203 188.151L867.051 188.383H867.329H878.015H878.102L878.145 188.308L939.047 82.754L939.047 82.7536C939.246 82.4063 939.71 82.2868 940.045 82.4875L940.047 82.4887C940.398 82.691 940.516 83.1412 940.319 83.4901L878.947 189.848H864.345L938.924 75.8659L938.949 75.8285V75.7838V72.0501V71.6041L938.679 71.9595L849.265 189.852H830.492L938.847 64.8488L938.896 64.7929L938.881 64.7203L938.465 62.6989L938.408 62.4242L938.211 62.6237L812.508 189.852H791.739L938.904 55.8762L938.953 55.8315V55.7652V52.7257V52.4076L938.707 52.6099L772.232 189.852H750.343L938.894 46.0147L938.953 45.9696V45.8954V43.4315V43.1428L938.716 43.3087L730.043 189.856H707.326L709.373 188.507L940.628 36.04L940.696 35.9955V35.9148V30.3771V30.1005L940.464 30.2513L695.249 189.852H672.404L941.807 23.0486L941.878 23.0046V22.9211V20.3582V20.0954L941.651 20.2291L654.552 189.848H636.192L940.617 13.0855L940.691 13.0422V12.9558V9.64552V9.38862L940.468 9.51489L621.123 189.753C621.121 189.754 621.12 189.754 621.119 189.755C620.988 189.818 620.87 189.848 620.742 189.848C620.491 189.848 620.235 189.714 620.103 189.476L620.103 189.476Z" fill="#E50025" stroke="#F6F5F3" stroke-width="0.3"/>
<path d="M940.525 6.47369L940.525 6.47369L1273.57 189.759C1273.68 189.819 1273.8 189.848 1273.93 189.848C1274.18 189.848 1274.43 189.711 1274.57 189.471C1274.76 189.113 1274.63 188.67 1274.28 188.47L940.525 6.47369ZM940.525 6.47369L940.524 6.47333C940.164 6.27736 940.04 5.82794 940.233 5.476L940.233 5.47501C940.426 5.119 940.878 4.99514 941.222 5.18759L941.223 5.18811L1274.27 188.47L940.525 6.47369Z" fill="#E50025" stroke="#F6F5F3" stroke-width="0.3"/>
<mask id="path-7-inside-1_158_2840" fill="white">
<path fill-rule="evenodd" clip-rule="evenodd" d="M946.226 196.546C946.226 199.555 944.071 202 941.428 202C938.778 202 936.619 199.555 936.619 196.546V78.7383L896.054 194.85C895.54 196.307 894.167 197.218 892.71 197.218C892.325 197.218 891.932 197.153 891.543 197.02C889.697 196.375 888.724 194.358 889.373 192.512L936.534 57.5236C936.56 57.4484 936.588 57.3748 936.619 57.3026V5.46134C936.619 2.44084 938.774 0 941.428 0C944.067 0 946.226 2.44084 946.226 5.46134V57.1652L993.048 191.184C993.692 193.026 992.72 195.047 990.882 195.692C990.485 195.825 990.1 195.89 989.711 195.89C988.25 195.89 986.881 194.982 986.37 193.522L946.226 78.6239V196.546Z"/>
</mask>
<path fill-rule="evenodd" clip-rule="evenodd" d="M946.226 196.546C946.226 199.555 944.071 202 941.428 202C938.778 202 936.619 199.555 936.619 196.546V78.7383L896.054 194.85C895.54 196.307 894.167 197.218 892.71 197.218C892.325 197.218 891.932 197.153 891.543 197.02C889.697 196.375 888.724 194.358 889.373 192.512L936.534 57.5236C936.56 57.4484 936.588 57.3748 936.619 57.3026V5.46134C936.619 2.44084 938.774 0 941.428 0C944.067 0 946.226 2.44084 946.226 5.46134V57.1652L993.048 191.184C993.692 193.026 992.72 195.047 990.882 195.692C990.485 195.825 990.1 195.89 989.711 195.89C988.25 195.89 986.881 194.982 986.37 193.522L946.226 78.6239V196.546Z" fill="#F6F5F3"/>
<path d="M936.619 78.7383H937.619L935.675 78.4084L936.619 78.7383ZM896.054 194.85L896.997 195.183L896.998 195.18L896.054 194.85ZM891.543 197.02L891.213 197.964L891.218 197.966L891.543 197.02ZM889.373 192.512L890.316 192.843L890.317 192.842L889.373 192.512ZM936.534 57.5236L937.478 57.8534L937.478 57.8533L936.534 57.5236ZM936.619 57.3026L937.54 57.6935L937.619 57.5061V57.3026H936.619ZM946.226 57.1652H945.226V57.3348L945.282 57.495L946.226 57.1652ZM993.048 191.184L992.104 191.514L992.104 191.514L993.048 191.184ZM990.882 195.692L991.201 196.64L991.213 196.635L990.882 195.692ZM986.37 193.522L985.426 193.852L985.426 193.852L986.37 193.522ZM946.226 78.6239L947.17 78.294L945.226 78.6239H946.226ZM941.428 203C944.74 203 947.226 199.984 947.226 196.546H945.226C945.226 199.127 943.403 201 941.428 201V203ZM935.619 196.546C935.619 199.986 938.111 203 941.428 203V201C939.444 201 937.619 199.125 937.619 196.546H935.619ZM935.619 78.7383V196.546H937.619V78.7383H935.619ZM896.998 195.18L937.563 79.0681L935.675 78.4084L895.11 194.52L896.998 195.18ZM892.71 198.218C894.577 198.218 896.337 197.052 896.997 195.183L895.112 194.517C894.742 195.562 893.756 196.218 892.71 196.218V198.218ZM891.218 197.966C891.709 198.134 892.212 198.218 892.71 198.218V196.218C892.438 196.218 892.154 196.172 891.867 196.074L891.218 197.966ZM888.429 192.181C887.598 194.549 888.846 197.137 891.213 197.964L891.872 196.076C890.548 195.613 889.851 194.167 890.316 192.843L888.429 192.181ZM935.59 57.1938L888.429 192.182L890.317 192.842L937.478 57.8534L935.59 57.1938ZM935.699 56.9116C935.66 57.004 935.623 57.0981 935.59 57.1939L937.478 57.8533C937.497 57.7988 937.517 57.7455 937.54 57.6935L935.699 56.9116ZM935.619 5.46134V57.3026H937.619V5.46134H935.619ZM941.428 -1C938.107 -1 935.619 2.01108 935.619 5.46134H937.619C937.619 2.87059 939.441 1 941.428 1V-1ZM947.226 5.46134C947.226 2.01223 944.736 -1 941.428 -1V1C943.399 1 945.226 2.86945 945.226 5.46134H947.226ZM947.226 57.1652V5.46134H945.226V57.1652H947.226ZM945.282 57.495L992.104 191.514L993.992 190.854L947.17 56.8353L945.282 57.495ZM992.104 191.514C992.566 192.836 991.867 194.286 990.551 194.748L991.213 196.635C993.572 195.808 994.818 193.216 993.992 190.854L992.104 191.514ZM990.563 194.744C990.262 194.845 989.984 194.89 989.711 194.89V196.89C990.215 196.89 990.708 196.805 991.201 196.639L990.563 194.744ZM989.711 194.89C988.66 194.89 987.68 194.237 987.314 193.192L985.426 193.852C986.083 195.728 987.841 196.89 989.711 196.89V194.89ZM987.314 193.192L947.17 78.294L945.282 78.9537L985.426 193.852L987.314 193.192ZM947.226 196.546V78.6239H945.226V196.546H947.226Z" fill="#E50025" mask="url(#path-7-inside-1_158_2840)"/>
<rect x="607.5" y="188.5" width="667" height="13" fill="#F6F5F3" stroke="#E50025"/>
</svg>
