<svg width="997" height="347" viewBox="0 0 997 347" fill="none" xmlns="http://www.w3.org/2000/svg">
<path d="M4 341L992 341" stroke="#E50025" stroke-miterlimit="10"/>
<rect x="5.5" y="336" width="7.77817" height="7.77817" transform="rotate(45 5.5 336)" fill="#E50025"/>
<rect x="991.5" y="336" width="7.77817" height="7.77817" transform="rotate(45 991.5 336)" fill="#E50025"/>
<path d="M733.473 333.164V299.436L744.374 287.172V333.164" stroke="#E50025"/>
<path d="M785.938 333.164V299.436L775.036 287.172V333.164" stroke="#E50025"/>
<path d="M738.922 293.304V237.092L751.527 224.486V333.164" stroke="#E50025"/>
<path d="M780.484 293.304V252.763L766.516 240.158V333.164" stroke="#E50025"/>
<path d="M743.695 233.005V179.858L758.345 165.209V332.484" stroke="#E50025"/>
<path d="M775.719 248.335V198.255L761.069 183.605V332.483" stroke="#E50025"/>
<path d="M748.125 175.087V113.765L757.323 104.566" stroke="#E50025"/>
<path d="M771.289 193.825V137.612L766.179 132.843V113.424L757.321 104.566" stroke="#E50025"/>
<path d="M752.891 108.996V92.6434L762.77 82.7637L766.518 86.1705V113.425" stroke="#E50025"/>
<path d="M753.914 91.2805V77.6532L764.135 67.7734V83.4448" stroke="#E50025"/>
<path d="M755.617 75.9492V59.2559L764.134 67.4322" stroke="#E50025"/>
<path d="M762.431 65.7302V45.9707L755.617 53.125V60.2793" stroke="#E50025"/>
<path d="M761.751 46.651V36.0899H760.729V28.9355L756.641 33.0237V51.4205" stroke="#E50025"/>
<path d="M758.004 31.3206V20.7595H758.685L759.367 1L760.048 20.7595H760.729V28.9359" stroke="#E50025"/>
<path d="M727 333.164V341H793.433V333.164H727Z" stroke="#E50025"/>
<path d="M608 341.5L743.5 216" stroke="#E50025"/>
<path d="M771 192.5L906.5 67" stroke="#E50025"/>
<path d="M786 298.5L921.5 173" stroke="#E50025"/>
<path d="M892.135 66.3808L906.888 66.3728L906.88 81.3992" stroke="#E50025" stroke-miterlimit="10"/>
<path d="M907.135 172.381L921.888 172.373L921.88 187.399" stroke="#E50025" stroke-miterlimit="10"/>
</svg>
