<svg xmlns="http://www.w3.org/2000/svg" viewBox="0 0 419.81 419.81"><defs><style>.cls-1{fill:#fff;}.cls-2{fill:none;}.cls-3{fill:#27579e;}.cls-4{fill:#27569d;}</style></defs><title>Dark Background</title><g id="Layer_2" data-name="Layer 2"><g id="Layer_1-2" data-name="Layer 1"><circle class="cls-1" cx="209.91" cy="209.91" r="209.91"/><rect class="cls-2" x="90.01" y="72.68" width="53.86" height="53.86"/><polygon class="cls-1" points="101.45 153.63 209.21 213.64 181.66 230.43 101.45 153.63"/><path class="cls-3" d="M104.61,156l103.61,57.7-26.5,16.14L104.61,156M98.3,151.3l83.29,79.75,28.61-17.43L98.3,151.3Z"/><polygon class="cls-4" points="210.2 180.9 210.2 213.62 98.3 151.3 210.2 180.9"/><polygon class="cls-4" points="238.81 231.05 210.2 213.62 322.11 151.3 238.81 231.05"/><polygon class="cls-1" points="210.7 181.28 318.38 152.8 210.7 212.77 210.7 181.28"/><path class="cls-3" d="M314.65,154.3,211.2,211.92V181.67L314.65,154.3m7.46-3L210.2,180.9v32.72L322.11,151.3Z"/><polygon class="cls-4" points="181.59 231.05 210.2 213.62 210.2 335.33 181.59 231.05"/><polygon class="cls-1" points="210.7 214.51 238.23 231.28 210.7 331.62 210.7 214.51"/><path class="cls-3" d="M211.2,215.4l26.45,16.11-26.45,96.4V215.4m-1-1.78V335.33l28.61-104.28L210.2,213.62Z"/><polygon class="cls-1" points="251.8 188.46 210.2 213.8 372.88 304.4 251.8 188.46"/><polygon class="cls-4" points="210.2 261.37 210.2 213.8 372.88 304.4 210.2 261.37"/><polygon class="cls-4" points="168.6 188.46 210.2 213.8 47.52 304.4 168.6 188.46"/><polygon class="cls-1" points="210.2 261.37 210.2 213.8 47.52 304.4 210.2 261.37"/><polygon class="cls-4" points="251.8 188.46 210.2 213.8 210.2 36.85 251.8 188.46"/><polygon class="cls-1" points="168.6 188.46 210.2 213.8 210.2 36.85 168.6 188.46"/><polygon class="cls-1" points="251.8 188.46 210.2 213.8 372.88 304.4 251.8 188.46"/><polygon class="cls-4" points="210.2 261.37 210.2 213.8 372.88 304.4 210.2 261.37"/><polygon class="cls-4" points="168.6 188.46 210.2 213.8 47.52 304.4 168.6 188.46"/><polygon class="cls-1" points="210.2 261.37 210.2 213.8 47.52 304.4 210.2 261.37"/><polygon class="cls-4" points="251.8 188.46 210.2 213.8 210.2 36.85 251.8 188.46"/><polygon class="cls-1" points="168.6 188.46 210.2 213.8 210.2 36.85 168.6 188.46"/><polygon class="cls-1" points="251.8 188.46 210.2 213.8 372.88 304.4 251.8 188.46"/><polygon class="cls-4" points="210.2 261.37 210.2 213.8 372.88 304.4 210.2 261.37"/><polygon class="cls-4" points="168.6 188.46 210.2 213.8 47.52 304.4 168.6 188.46"/><polygon class="cls-1" points="210.2 261.37 210.2 213.8 47.52 304.4 210.2 261.37"/><polygon class="cls-4" points="251.8 188.46 210.2 213.8 210.2 36.85 251.8 188.46"/><polygon class="cls-1" points="168.6 188.46 210.2 213.8 210.2 36.85 168.6 188.46"/><polygon class="cls-1" points="211.19 213.78 251.73 189.08 369.73 302.07 211.19 213.78"/><path class="cls-3" d="M251.66,189.71l114.91,110-154.38-86,39.47-24m.14-1.26L210.2,213.8l162.68,90.6L251.8,188.45Z"/><polygon class="cls-4" points="210.7 260.99 210.7 214.65 369.16 302.9 210.7 260.99"/><path class="cls-3" d="M211.2,215.5l154.23,85.89L211.2,260.6V215.5m-1-1.7v47.57l162.68,43L210.2,213.8Z"/><polygon class="cls-4" points="168.67 189.08 209.21 213.78 50.68 302.07 168.67 189.08"/><path class="cls-3" d="M168.74,189.71l39.48,24-154.39,86,114.91-110m-.14-1.26L47.52,304.4,210.2,213.8l-41.6-25.35Z"/><polygon class="cls-1" points="209.7 214.65 209.7 260.99 51.24 302.9 209.7 214.65"/><path class="cls-4" d="M209.2,215.5v45.1L55,301.39,209.2,215.5m1-1.7L47.52,304.4l162.68-43V213.8Z"/><polygon class="cls-4" points="210.7 40.56 251.22 188.22 210.7 212.91 210.7 40.56"/><path class="cls-3" d="M211.2,44.28,250.63,188,211.2,212V44.28m-1-7.43v177l41.6-25.35L210.2,36.85Z"/><polygon class="cls-1" points="169.19 188.22 209.7 40.56 209.7 212.91 169.19 188.22"/><path class="cls-3" d="M209.2,44.28V212l-39.43-24L209.2,44.28m1-7.43-41.6,151.6,41.6,25.35v-177Z"/></g></g></svg>