<svg width="34" height="33" viewBox="0 0 34 33" fill="none" xmlns="http://www.w3.org/2000/svg">
<rect x="0.625" width="33" height="33" rx="1" fill="#CCC6BE"/>
<path d="M11.5297 23.6888H23.6905C23.9242 23.6889 24.1487 23.7793 24.3173 23.9411C24.4858 24.103 24.5853 24.3237 24.5949 24.5571C24.6046 24.7906 24.5236 25.0187 24.3689 25.1938C24.2142 25.369 23.9979 25.4776 23.765 25.4969L23.6905 25.5H11.5297C11.2961 25.4998 11.0716 25.4093 10.9031 25.2474C10.7347 25.0855 10.6353 24.8649 10.6258 24.6314C10.6162 24.398 10.6972 24.17 10.8519 23.9949C11.0065 23.8198 11.2229 23.7112 11.4557 23.6919L11.5297 23.6888H23.6905H11.5297ZM17.4067 7.0031L17.4807 7C17.708 7.00001 17.927 7.08547 18.0941 7.23943C18.2613 7.39338 18.3645 7.60457 18.3832 7.83108L18.3863 7.90559V18.945L20.8666 16.4653C21.0365 16.2954 21.2668 16.2 21.507 16.2C21.7472 16.2 21.9775 16.2954 22.1474 16.4653C22.3172 16.6351 22.4126 16.8655 22.4126 17.1057C22.4126 17.3458 22.3172 17.5762 22.1474 17.746L18.1224 21.771C18.0383 21.8551 17.9385 21.9218 17.8286 21.9674C17.7187 22.0129 17.6009 22.0363 17.482 22.0363C17.3631 22.0363 17.2453 22.0129 17.1354 21.9674C17.0256 21.9218 16.9257 21.8551 16.8416 21.771L12.8167 17.746C12.6468 17.5762 12.5514 17.3458 12.5514 17.1057C12.5514 16.8655 12.6468 16.6351 12.8167 16.4653C12.9865 16.2954 13.2168 16.2 13.457 16.2C13.6972 16.2 13.9276 16.2954 14.0974 16.4653L16.5751 18.943V7.90559C16.5751 7.67824 16.6607 7.45921 16.8147 7.29201C16.9688 7.12481 17.1801 7.02168 17.4067 7.0031L17.4807 7L17.4067 7.0031Z" fill="white"/>
</svg>
