<svg width="20" height="20" viewBox="0 0 20 20" fill="none" xmlns="http://www.w3.org/2000/svg">
<path d="M14.1667 14.1667H15.8333C16.2754 14.1667 16.6993 13.9911 17.0118 13.6785C17.3244 13.366 17.5 12.942 17.5 12.5V9.16667C17.5 8.72464 17.3244 8.30072 17.0118 7.98816C16.6993 7.6756 16.2754 7.5 15.8333 7.5H4.16667C3.72464 7.5 3.30072 7.6756 2.98816 7.98816C2.67559 8.30072 2.5 8.72464 2.5 9.16667V12.5C2.5 12.942 2.67559 13.366 2.98816 13.6785C3.30072 13.9911 3.72464 14.1667 4.16667 14.1667H5.83333" stroke="#E50025" stroke-linecap="round" stroke-linejoin="round"/>
<path d="M14.1654 7.5V4.16667C14.1654 3.72464 13.9898 3.30072 13.6772 2.98816C13.3646 2.67559 12.9407 2.5 12.4987 2.5H7.4987C7.05667 2.5 6.63275 2.67559 6.32019 2.98816C6.00763 3.30072 5.83203 3.72464 5.83203 4.16667V7.5" stroke="#E50025" stroke-linecap="round" stroke-linejoin="round"/>
<path d="M12.4987 10.834H7.4987C6.57822 10.834 5.83203 11.5802 5.83203 12.5007V15.834C5.83203 16.7545 6.57822 17.5007 7.4987 17.5007H12.4987C13.4192 17.5007 14.1654 16.7545 14.1654 15.834V12.5007C14.1654 11.5802 13.4192 10.834 12.4987 10.834Z" stroke="#E50025" stroke-linecap="round" stroke-linejoin="round"/>
</svg>
