<svg width="19" height="18" viewBox="0 0 19 18" fill="none" xmlns="http://www.w3.org/2000/svg">
<path d="M4.70542 17.9072H0.820312V5.11719H4.70542V17.9072ZM18.9508 17.9072H15.0657V11.0748C15.0657 9.29441 14.4234 8.40806 13.1503 8.40806C12.1415 8.40806 11.5018 8.90432 11.1806 9.8981V17.9072H7.29549C7.29549 17.9072 7.34729 6.39619 7.29549 5.11719H10.3621L10.5991 7.6752H10.6794C11.4759 6.39619 12.7489 5.52903 14.4946 5.52903C15.822 5.52903 16.8956 5.89354 17.7153 6.80931C18.5403 7.72636 18.9508 8.95676 18.9508 10.6847V17.9072Z" fill="#FFFDF6"/>
<path d="M2.76508 3.83691C3.87366 3.83691 4.77234 2.97799 4.77234 1.91846C4.77234 0.858922 3.87366 0 2.76508 0C1.65649 0 0.757812 0.858922 0.757812 1.91846C0.757812 2.97799 1.65649 3.83691 2.76508 3.83691Z" fill="#FFFDF6"/>
</svg>
