<svg width="997" height="292" viewBox="0 0 997 292" fill="none" xmlns="http://www.w3.org/2000/svg">
<path d="M4 286L703 286" stroke="#E50025" stroke-miterlimit="10"/>
<path d="M941 286L992 286" stroke="#E50025" stroke-miterlimit="10"/>
<rect x="5.5" y="281" width="7.77817" height="7.77817" transform="rotate(45 5.5 281)" fill="#E50025"/>
<rect x="991.5" y="281" width="7.77817" height="7.77817" transform="rotate(45 991.5 281)" fill="#E50025"/>
<path d="M722.938 86.4931V67.3242H921.911V86.4931" stroke="#E50025"/>
<path d="M727.922 67.3245V51.2227H915.777V67.3245" stroke="#E50025"/>
<circle cx="777.76" cy="35.8866" r="8.70107" stroke="#E50025"/>
<circle cx="865.935" cy="35.8866" r="8.70107" stroke="#E50025"/>
<path d="M747.855 29.7542V16.3359H896.223V29.7542" stroke="#E50025"/>
<path d="M743.641 50.4558V30.1367H769.327" stroke="#E50025"/>
<path d="M900.054 50.8397V29.7539H873.984" stroke="#E50025"/>
<path d="M782.36 16.3355L779.293 11.3516H865.17L861.336 16.3355" stroke="#E50025"/>
<path d="M797.312 10.5844L804.597 7.9008L809.581 4.83378L811.497 1H822.232" stroke="#E50025"/>
<path d="M847.148 10.5844L839.864 7.9008L834.88 4.83378L832.963 1H822.229" stroke="#E50025"/>
<path d="M809.961 4.45117H834.881" stroke="#E50025"/>
<path d="M805.359 7.51758L839.863 7.51758" stroke="#E50025"/>
<path d="M787.344 29.3698H802.679L805.363 26.3027H837.183L839.483 29.3698H855.585C856.863 32.1812 858.652 39.2609 855.585 45.0883" stroke="#E50025"/>
<path d="M856.125 44.7045L840.79 44.7045L838.106 47.7715L806.286 47.7715L803.986 44.7045L787.884 44.7045C786.606 41.893 784.817 34.8133 787.884 28.986" stroke="#E50025"/>
<path d="M721.019 92.627V154.734L717.952 158.568L718.718 160.485V183.871L716.802 187.321H714.501L717.952 193.839V239.461L714.501 242.144L716.802 245.211L714.501 257.096V260.547V269.364H712.968V275.498H710.668V282.782H703V287H791.944V284.699H784.276L788.877 160.485L791.177 157.034L789.643 155.501H787.727C790.027 146.428 800.071 128.511 821.847 129.431" stroke="#E50025"/>
<path d="M922.677 92.627V154.734L925.744 158.568L924.977 160.485V183.871L926.894 187.321H929.194L925.744 193.839V239.461L929.194 242.144L926.894 245.211L929.194 257.096V260.547V269.364H930.727V275.498H933.028V282.782H940.695V287H851.752V284.699H859.419L854.819 160.485L852.518 157.034L854.052 155.501H855.969C853.669 146.428 843.624 128.511 821.848 129.431" stroke="#E50025"/>
<path d="M721.018 106.045L710.104 88.7944C709.682 88.1286 710.161 87.2598 710.949 87.2598H822.996" stroke="#E50025"/>
<path d="M922.678 106.045L933.592 88.7944C934.013 88.1286 933.534 87.2598 932.747 87.2598H820.699" stroke="#E50025"/>
<path d="M822.615 106.43H782.36C780.699 106.557 777.376 107.81 777.376 111.797V155.119H778.526V158.569H777.376V183.872L778.526 187.706H780.06L776.609 193.84V258.247L778.143 259.781L776.609 261.698V278.183H779.293V284.317" stroke="#E50025"/>
<path d="M821.081 106.43H861.335C862.997 106.557 866.319 107.81 866.319 111.797V155.119H865.169V158.569H866.319V183.872L865.169 187.706H863.636L867.086 193.84V258.247L865.552 259.781L867.086 261.698V278.183H864.402V284.317" stroke="#E50025"/>
<path d="M787.344 193.839C787.855 188.6 790.181 177.124 795.395 173.137L790.411 162.402C793.478 155.757 804.059 142.467 821.848 142.467" stroke="#E50025"/>
<path d="M856.352 193.839C855.84 188.6 853.515 177.124 848.301 173.137L853.285 162.402C850.218 155.757 839.636 142.467 821.848 142.467" stroke="#E50025"/>
<path d="M777.375 113.713H821.463" stroke="#E50025"/>
<path d="M866.32 113.713H822.232" stroke="#E50025"/>
<path d="M818.898 113.83H825.566V120.231C825.566 122.072 824.073 123.565 822.232 123.565C820.391 123.565 818.898 122.072 818.898 120.231V113.83Z" stroke="#E50025"/>
<path d="M778.523 155.117L787.725 155.501" stroke="#E50025"/>
<path d="M865.168 155.117L855.967 155.501" stroke="#E50025"/>
<path d="M778.527 158.568L788.879 160.102" stroke="#E50025"/>
<path d="M865.168 158.568L854.817 160.102" stroke="#E50025"/>
<path d="M781.211 155.118C781.978 143.362 790.489 119.311 818.399 117.164" stroke="#E50025"/>
<path d="M862.484 155.118C861.718 143.362 853.207 119.311 825.297 117.164" stroke="#E50025"/>
<path d="M784.66 155.118C785.044 144.767 792.404 123.297 818.781 120.23" stroke="#E50025"/>
<path d="M859.035 155.118C858.652 144.767 851.291 123.297 824.915 120.23" stroke="#E50025"/>
<circle cx="748.623" cy="124.832" r="8.70107" stroke="#E50025"/>
<circle r="8.70107" transform="matrix(-1 0 0 1 895.072 124.832)" stroke="#E50025"/>
<circle cx="748.621" cy="124.832" r="12.5349" stroke="#E50025"/>
<circle r="12.5349" transform="matrix(-1 0 0 1 895.075 124.832)" stroke="#E50025"/>
<path d="M711.051 90.7109H823.764" stroke="#E50025"/>
<path d="M932.641 90.7109H819.927" stroke="#E50025"/>
<path d="M712.203 92.627H823.383" stroke="#E50025"/>
<path d="M931.492 92.627H820.313" stroke="#E50025"/>
<path d="M717.953 239.845H727.921M765.875 239.845H727.921M770.859 285.083V277.799H767.409V269.365H765.875V257.48V245.212V193.839L767.792 189.622L765.875 185.405V159.335L767.026 155.501H765.875V138.633H729.071V155.501H727.154L727.921 158.568V184.255L725.237 188.472L727.921 193.072V239.845" stroke="#E50025"/>
<path d="M925.742 239.845H915.774M877.82 239.845H915.774M872.836 285.083V277.799H876.286V269.365H877.82V257.48V245.212V193.839L875.903 189.622L877.82 185.405V159.335L876.67 155.501H877.82V138.633H914.624V155.501H916.541L915.774 158.568V184.255L918.458 188.472L915.774 193.072V239.845" stroke="#E50025"/>
<path d="M721.402 284.317V270.132H723.319V261.314L724.853 257.864V245.596" stroke="#E50025"/>
<path d="M922.293 284.317V270.132H920.376V261.314L918.843 257.864V245.596" stroke="#E50025"/>
<path d="M716.801 245.211H765.873" stroke="#E50025"/>
<path d="M926.891 245.211H877.818" stroke="#E50025"/>
<path d="M719.102 183.871H727.919H765.49H776.992" stroke="#E50025"/>
<path d="M924.594 183.871H915.776H878.205H866.704" stroke="#E50025"/>
<path d="M717.953 193.072H776.993" stroke="#E50025"/>
<path d="M925.742 193.072H866.702" stroke="#E50025"/>
<path d="M716.801 187.322L725.618 188.856H767.79L778.525 187.322" stroke="#E50025"/>
<path d="M926.891 187.322L918.073 188.856H875.901L865.167 187.322" stroke="#E50025"/>
</svg>
