<svg width="28" height="28" viewBox="0 0 28 28" fill="none" xmlns="http://www.w3.org/2000/svg">
<g clip-path="url(#clip0_158_1988)">
<path d="M26.9375 -0.0625H1.0625C0.440234 -0.0625 -0.0625 0.440234 -0.0625 1.0625V26.9375C-0.0625 27.5598 0.440234 28.0625 1.0625 28.0625H26.9375C27.5598 28.0625 28.0625 27.5598 28.0625 26.9375V1.0625C28.0625 0.440234 27.5598 -0.0625 26.9375 -0.0625ZM8.28008 23.9035H4.10703V10.4809H8.28008V23.9035ZM6.19531 8.6457C5.71693 8.6457 5.24929 8.50385 4.85153 8.23807C4.45377 7.97229 4.14375 7.59454 3.96068 7.15257C3.77761 6.7106 3.72971 6.22427 3.82304 5.75508C3.91637 5.28589 4.14673 4.85491 4.485 4.51664C4.82327 4.17837 5.25425 3.94801 5.72344 3.85468C6.19263 3.76135 6.67896 3.80925 7.12093 3.99232C7.5629 4.17539 7.94065 4.48541 8.20643 4.88317C8.47221 5.28093 8.61406 5.74857 8.61406 6.22695C8.61055 7.56289 7.52773 8.6457 6.19531 8.6457ZM23.9035 23.9035H19.734V17.375C19.734 15.8176 19.7059 13.8172 17.5648 13.8172C15.3957 13.8172 15.0617 15.5117 15.0617 17.2625V23.9035H10.8957V10.4809H14.8965V12.316H14.9527C15.5082 11.2613 16.8688 10.1469 18.9008 10.1469C23.1266 10.1469 23.9035 12.9277 23.9035 16.5418V23.9035Z" fill="#E50025"/>
</g>
<defs>
<clipPath id="clip0_158_1988">
<rect width="28" height="28" fill="white"/>
</clipPath>
</defs>
</svg>
