<svg width="33" height="33" viewBox="0 0 33 33" fill="none" xmlns="http://www.w3.org/2000/svg">
<path d="M31.5 0H1.3125C0.586523 0 0 0.586523 0 1.3125V31.5C0 32.226 0.586523 32.8125 1.3125 32.8125H31.5C32.226 32.8125 32.8125 32.226 32.8125 31.5V1.3125C32.8125 0.586523 32.226 0 31.5 0ZM9.73301 27.9604H4.86445V12.3006H9.73301V27.9604ZM7.30078 10.1596C6.74267 10.1596 6.19709 9.99407 5.73303 9.684C5.26898 9.37393 4.90729 8.93321 4.69371 8.41758C4.48013 7.90195 4.42425 7.33456 4.53313 6.78717C4.64201 6.23978 4.91077 5.73697 5.30541 5.34233C5.70006 4.94768 6.20287 4.67892 6.75026 4.57004C7.29765 4.46116 7.86504 4.51704 8.38067 4.73062C8.8963 4.9442 9.33701 5.30589 9.64708 5.76995C9.95716 6.234 10.1227 6.77958 10.1227 7.3377C10.1186 8.89629 8.85527 10.1596 7.30078 10.1596ZM27.9604 27.9604H23.0959V20.3438C23.0959 18.5268 23.0631 16.193 20.5652 16.193C18.0346 16.193 17.6449 18.1699 17.6449 20.2125V27.9604H12.7846V12.3006H17.4521V14.4416H17.5178C18.1658 13.2111 19.7531 11.9109 22.1238 11.9109C27.0539 11.9109 27.9604 15.1553 27.9604 19.3717V27.9604Z" fill="#CCC6BE"/>
</svg>
