<svg width="20" height="20" viewBox="0 0 20 20" fill="none" xmlns="http://www.w3.org/2000/svg">
<path d="M4.16667 3.33398H7.5L9.16667 7.50065L7.08333 8.75065C7.9758 10.5603 9.44039 12.0249 11.25 12.9173L12.5 10.834L16.6667 12.5007V15.834C16.6667 16.276 16.4911 16.6999 16.1785 17.0125C15.866 17.3251 15.442 17.5007 15 17.5007C11.7494 17.3031 8.68346 15.9227 6.38069 13.62C4.07792 11.3172 2.69754 8.25126 2.5 5.00065C2.5 4.55862 2.67559 4.1347 2.98816 3.82214C3.30072 3.50958 3.72464 3.33398 4.16667 3.33398" stroke="#E50025" stroke-linecap="round" stroke-linejoin="round"/>
<path d="M12.5 5.83398C12.942 5.83398 13.366 6.00958 13.6785 6.32214C13.9911 6.6347 14.1667 7.05862 14.1667 7.50065" stroke="#E50025" stroke-linecap="round" stroke-linejoin="round"/>
<path d="M12.5 2.5C13.8261 2.5 15.0979 3.02678 16.0355 3.96447C16.9732 4.90215 17.5 6.17392 17.5 7.5" stroke="#E50025" stroke-linecap="round" stroke-linejoin="round"/>
</svg>
