<svg width="32" height="27" viewBox="0 0 32 27" fill="none" xmlns="http://www.w3.org/2000/svg">
    <path d="M25.546 0c1.883 0 3.451.77 4.706 2.31C31.417 3.85 32 6.16 32 9.24c0 4.043-.941 7.75-2.823 11.118-1.883 3.465-5.02 5.68-9.412 6.642l-.673-3.32c2.6-.867 4.482-1.926 5.648-3.177 1.165-1.155 1.747-2.695 1.747-4.62 0-1.54-.627-2.359-1.882-2.455-1.345-.096-2.6-.674-3.765-1.733-1.165-1.059-1.748-2.695-1.748-4.909 0-2.118.628-3.802 1.883-5.053C22.23.578 23.753 0 25.546 0zM6.454 0c1.882 0 3.45.77 4.706 2.31 1.165 1.54 1.748 3.85 1.748 6.93 0 4.043-.942 7.75-2.824 11.118C8.202 23.823 5.064 26.038.672 27L0 23.68c2.6-.867 4.482-1.926 5.647-3.177 1.165-1.155 1.748-2.695 1.748-4.62 0-1.54-.627-2.359-1.882-2.455-1.345-.096-2.6-.674-3.765-1.733C.583 10.636 0 9 0 6.786c0-2.118.627-3.802 1.882-5.053C3.137.578 4.662 0 6.454 0z" fill="#E50025"/>
</svg>
