<svg width="32" height="27" viewBox="0 0 32 27" fill="none" xmlns="http://www.w3.org/2000/svg">
    <path d="M6.454 0C4.57 0 3.003.77 1.748 2.31.583 3.85 0 6.16 0 9.24c0 4.043.941 7.75 2.824 11.118 1.882 3.465 5.02 5.68 9.411 6.642l.673-3.32c-2.6-.867-4.482-1.926-5.647-3.177-1.166-1.155-1.748-2.695-1.748-4.62 0-1.54.627-2.359 1.882-2.455 1.345-.096 2.6-.674 3.765-1.733 1.165-1.059 1.748-2.695 1.748-4.909 0-2.118-.628-3.802-1.883-5.053C9.77.578 8.246 0 6.454 0zm19.092 0c-1.882 0-3.45.77-4.706 2.31-1.165 1.54-1.748 3.85-1.748 6.93 0 4.043.942 7.75 2.824 11.118 1.882 3.465 5.02 5.68 9.412 6.642L32 23.68c-2.6-.867-4.482-1.926-5.647-3.177-1.165-1.155-1.748-2.695-1.748-4.62 0-1.54.628-2.359 1.882-2.455 1.345-.096 2.6-.674 3.765-1.733C31.417 10.636 32 9 32 6.786c0-2.118-.628-3.802-1.882-5.053C28.863.578 27.338 0 25.546 0z" fill="#E50025"/>
</svg>
