<svg width="997" height="312" viewBox="0 0 997 312" fill="none" xmlns="http://www.w3.org/2000/svg">
<path d="M4 306L890 306" stroke="#E50025" stroke-miterlimit="10"/>
<path d="M890 306H992" stroke="#E50025" stroke-miterlimit="10"/>
<rect x="5.5" y="301" width="7.77817" height="7.77817" transform="rotate(45 5.5 301)" fill="#E50025"/>
<rect x="991.5" y="301" width="7.77817" height="7.77817" transform="rotate(45 991.5 301)" fill="#E50025"/>
<path d="M833.5 38.618L850.424 90.7057L850.537 91.0512H850.9L905.668 91.0512L861.36 123.243L861.066 123.457L861.178 123.802L878.102 175.89L833.794 143.698L833.5 143.484L833.206 143.698L788.898 175.89L805.822 123.802L805.934 123.457L805.64 123.243L761.332 91.0512L816.1 91.0512H816.463L816.576 90.7057L833.5 38.618Z" stroke="#E50025"/>
<path d="M911.5 1.61804L917.648 20.5385L917.76 20.884H918.123H938.017L921.923 32.5775L921.629 32.791L921.741 33.1365L927.889 52.057L911.794 40.3635L911.5 40.15L911.206 40.3635L895.111 52.057L901.259 33.1365L901.371 32.791L901.077 32.5775L884.983 20.884H904.877H905.24L905.352 20.5385L911.5 1.61804Z" stroke="#E50025"/>
<path d="M761 90.5L624.5 306" stroke="#E50025"/>
<path d="M789 176.5L713.5 306" stroke="#E50025"/>
<path d="M878 176.5L800.5 306" stroke="#E50025"/>
<path d="M906 91L871.5 155" stroke="#E50025"/>
<path d="M842.5 221.618L848.648 240.539L848.76 240.884H849.123H869.017L852.923 252.577L852.629 252.791L852.741 253.137L858.889 272.057L842.794 260.363L842.5 260.15L842.206 260.363L826.111 272.057L832.259 253.137L832.371 252.791L832.077 252.577L815.983 240.884H835.877H836.24L836.352 240.539L842.5 221.618Z" fill="#F6F5F3" stroke="#E50025"/>
</svg>
