<svg width="997" height="177" viewBox="0 0 997 177" fill="none" xmlns="http://www.w3.org/2000/svg">
<path d="M4 171L808 171" stroke="#E50025" stroke-miterlimit="10"/>
<path d="M890 171H992" stroke="#E50025" stroke-miterlimit="10"/>
<path d="M808.202 171.135C792.208 162.051 779.665 147.923 772.531 130.954C765.397 113.984 764.073 95.128 768.764 77.3258C773.455 59.5236 783.899 43.7764 798.466 32.5402C813.033 21.3041 830.904 15.2109 849.292 15.2109C867.68 15.2109 885.551 21.3041 900.118 32.5402C914.685 43.7764 925.129 59.5236 929.82 77.3258C934.511 95.128 933.187 113.984 926.052 130.954C918.918 147.923 906.376 162.051 890.382 171.135" stroke="#E50025" stroke-miterlimit="10"/>
<path d="M849.334 163.896C885.331 163.896 914.512 134.678 914.512 98.6355C914.512 62.5931 885.331 33.375 849.334 33.375C813.337 33.375 784.156 62.5931 784.156 98.6355C784.156 134.678 813.337 163.896 849.334 163.896Z" stroke="#E50025" stroke-miterlimit="10"/>
<path d="M849.33 144.237C874.486 144.237 894.879 123.818 894.879 98.6302C894.879 73.4423 874.486 53.0234 849.33 53.0234C824.174 53.0234 803.781 73.4423 803.781 98.6302C803.781 123.818 824.174 144.237 849.33 144.237Z" stroke="#E50025" stroke-miterlimit="10"/>
<path d="M848.141 101.116L939.629 9.48438" stroke="#E50025" stroke-miterlimit="10"/>
<path d="M847.703 92.0469V101.53H856.312" stroke="#E50025" stroke-miterlimit="10"/>
<path d="M934.164 5.47656V14.9594H942.773" stroke="#E50025" stroke-miterlimit="10"/>
<path d="M939.633 0V9.48286H948.255" stroke="#E50025" stroke-miterlimit="10"/>
<rect x="5.5" y="166" width="7.77817" height="7.77817" transform="rotate(45 5.5 166)" fill="#E50025"/>
<rect x="991.5" y="166" width="7.77817" height="7.77817" transform="rotate(45 991.5 166)" fill="#E50025"/>
</svg>
