<svg width="34" height="33" viewBox="0 0 34 33" fill="none" xmlns="http://www.w3.org/2000/svg">
<path d="M32.3125 0H2.125C1.39902 0 0.8125 0.586523 0.8125 1.3125V31.5C0.8125 32.226 1.39902 32.8125 2.125 32.8125H32.3125C33.0385 32.8125 33.625 32.226 33.625 31.5V1.3125C33.625 0.586523 33.0385 0 32.3125 0ZM26.0494 11.8822C26.0617 12.075 26.0617 12.276 26.0617 12.4729C26.0617 18.4939 21.4762 25.4297 13.0967 25.4297C10.5127 25.4297 8.11738 24.6791 6.09941 23.3871C6.46855 23.4281 6.82129 23.4445 7.19863 23.4445C9.33145 23.4445 11.292 22.7227 12.8547 21.5004C10.8531 21.4594 9.17148 20.1469 8.59727 18.3422C9.29863 18.4447 9.93027 18.4447 10.6521 18.2602C9.62153 18.0508 8.69519 17.491 8.0305 16.6761C7.3658 15.8611 7.00375 14.8411 7.00586 13.7895V13.732C7.60879 14.0725 8.31836 14.2816 9.06074 14.3104C8.43666 13.8944 7.92485 13.3309 7.57069 12.6698C7.21653 12.0088 7.03098 11.2705 7.03047 10.5205C7.03047 9.67148 7.25195 8.89629 7.64981 8.22363C8.79374 9.63185 10.2212 10.7836 11.8394 11.604C13.4576 12.4244 15.2303 12.8951 17.0424 12.9855C16.3984 9.88887 18.7117 7.38281 21.4926 7.38281C22.8051 7.38281 23.9863 7.93242 24.8189 8.81836C25.8484 8.62559 26.8328 8.24004 27.7105 7.72324C27.3701 8.77734 26.6564 9.66738 25.709 10.2293C26.6277 10.1309 27.5137 9.87656 28.334 9.51973C27.7146 10.4303 26.9395 11.2383 26.0494 11.8822V11.8822Z" fill="#CCC6BE"/>
</svg>
