<svg width="21" height="17" viewBox="0 0 21 17" fill="none" xmlns="http://www.w3.org/2000/svg">
<path d="M20.1289 1.98952C19.4036 2.32446 18.6343 2.54421 17.8465 2.64144C18.6762 2.12389 19.2972 1.30949 19.5936 0.350022C18.8136 0.83268 17.9602 1.17255 17.0702 1.35491C16.6983 0.941474 16.249 0.612049 15.75 0.387048C15.251 0.162048 14.713 0.0462655 14.1694 0.0468774C11.9747 0.0468774 10.1952 1.90141 10.1952 4.18968C10.1952 4.51406 10.2304 4.83058 10.2983 5.13399C6.99531 4.96117 4.06712 3.31171 2.10694 0.805001C1.75352 1.43727 1.5678 2.15616 1.56885 2.88794C1.56833 3.57002 1.72944 4.24167 2.03788 4.84321C2.34631 5.44476 2.79251 5.95757 3.33684 6.33608C2.70584 6.31518 2.08875 6.13753 1.5369 5.8179C1.5364 5.83521 1.5364 5.85225 1.5364 5.87008C1.5364 7.87671 2.90616 9.55109 4.72395 9.93211C4.13863 10.0973 3.52493 10.1215 2.9293 10.0029C3.43494 11.6484 4.90256 12.8466 6.64162 12.8802C5.23385 14.0318 3.49545 14.6564 1.70595 14.6537C1.38521 14.6537 1.069 14.6343 0.757812 14.5957C2.57494 15.8128 4.68978 16.4588 6.84966 16.4565C14.1596 16.4565 18.1569 10.1443 18.1569 4.67035C18.1569 4.49099 18.1529 4.31188 18.1453 4.13382C18.9238 3.54796 19.5956 2.82177 20.1289 1.98952V1.98952Z" fill="white"/>
</svg>
