<svg width="23" height="15" viewBox="0 0 23 15" fill="none" xmlns="http://www.w3.org/2000/svg">
<path d="M21.9362 3.87003C21.735 2.29658 21.5337 1.14272 20.93 0.72313C20.3262 0.198647 15.0937 0.09375 11.0687 0.09375C7.04373 0.09375 1.81125 0.198647 1.2075 0.72313C0.603749 1.14272 0.402499 2.29658 0.20125 3.87003C4.49828e-08 5.44349 0 6.38756 0 7.43652C0 8.48549 4.49828e-08 9.42956 0.20125 11.003C0.402499 12.5765 0.603749 13.7303 1.2075 14.1499C1.81125 14.6744 7.04373 14.7793 11.0687 14.7793C15.0937 14.7793 20.3262 14.6744 20.93 14.1499C21.5337 13.7303 21.735 12.5765 21.9362 11.003C22.1374 9.42956 22.1375 8.48549 22.1375 7.43652C22.1375 6.38756 22.1374 5.44349 21.9362 3.87003ZM9.05623 11.2128V3.66024L15.0937 7.43652L9.05623 11.2128Z" fill="white"/>
</svg>
