<svg width="34" height="33" viewBox="0 0 34 33" fill="none" xmlns="http://www.w3.org/2000/svg">
<rect x="0.625" width="33" height="33" rx="1" fill="#CCC6BE"/>
<path d="M17.6272 6.11406C12.1098 6.11406 7.62455 10.5004 7.61696 15.8961C7.61696 17.7441 8.14821 19.5477 9.15 21.0988L9.38527 21.4699L8.37589 25.077L12.1629 24.1047L12.5272 24.3199C14.0603 25.2105 15.821 25.6855 17.6196 25.6855H17.6272C23.1371 25.6855 27.7437 21.2992 27.7437 15.9035C27.7437 13.291 26.5902 10.8344 24.7004 8.98633C22.8031 7.13086 20.2987 6.11406 17.6272 6.11406ZM23.5089 20.0969C23.2585 20.7871 22.0594 21.4105 21.4826 21.4922C20.5263 21.6332 19.7826 21.559 17.8777 20.7574C14.8647 19.4809 12.8915 16.5121 12.7397 16.3191C12.5879 16.1262 11.5103 14.7234 11.5103 13.2762C11.5103 11.8289 12.2844 11.1164 12.5652 10.8195C12.8384 10.5227 13.1647 10.4484 13.3696 10.4484C13.567 10.4484 13.7719 10.4484 13.9464 10.4559C14.1286 10.4633 14.379 10.3891 14.6219 10.9605C14.8723 11.5469 15.4719 12.9941 15.5478 13.1426C15.6237 13.291 15.6768 13.4617 15.5705 13.6547C14.9937 14.7828 14.379 14.7383 14.6902 15.2578C15.8513 17.2098 17.0125 17.8852 18.7808 18.7535C19.0844 18.902 19.2589 18.8797 19.4335 18.6793C19.608 18.4863 20.1848 17.8184 20.3821 17.5289C20.5795 17.232 20.7844 17.284 21.0576 17.3805C21.3308 17.477 22.8107 18.1895 23.1143 18.3379C23.4179 18.4863 23.6152 18.5605 23.6911 18.6793C23.7594 18.8203 23.7594 19.4141 23.5089 20.0969ZM17.6196 27.6672C15.6009 27.6672 13.6201 27.1699 11.867 26.2348L5.48438 27.875L7.19196 21.7742C6.13705 19.993 5.58304 17.9668 5.58304 15.8887C5.59063 9.40195 10.9866 4.125 17.6196 4.125C20.8375 4.125 23.858 5.34961 26.1348 7.57617C28.404 9.80273 29.7701 12.7566 29.7701 15.9035C29.7701 22.3902 24.2527 27.6672 17.6196 27.6672Z" fill="white"/>
</svg>
